<svg xmlns="http://www.w3.org/2000/svg" xmlns:svg="http://www.w3.org/2000/svg" id="svg2" width="706.125" height="408.405" version="1.2"><defs id="defs4"><marker id="Arrow1Lend" orient="auto" refX="0" refY="0" style="overflow:visible"><path id="path3768" d="M 0,0 5,-5 -12.5,0 5,5 0,0 z" transform="matrix(-0.8,0,0,-0.8,-10,0)" style="fill-rule:evenodd;stroke:#000;stroke-width:1pt;marker-start:none"/></marker><marker id="Arrow1Lstart" orient="auto" refX="0" refY="0" style="overflow:visible"><path id="path3765" d="M 0,0 5,-5 -12.5,0 5,5 0,0 z" transform="matrix(0.8,0,0,0.8,10,0)" style="fill-rule:evenodd;stroke:#000;stroke-width:1pt;marker-start:none"/></marker></defs><metadata id="metadata7"/><g id="layer1" transform="translate(-52,-97.25)"><path id="path4420" d="m 757.13413,451.32142 c -0.34262,0.36811 -704.125927,-1.01015 -704.125927,-1.01015 0,-194.439 157.623957,-352.062964 352.062977,-352.062964 194.439,0 352.06295,158.634114 352.06295,353.073114 z" style="fill:#8497e9;fill-opacity:.3639144;stroke:#000;stroke-width:2;stroke-miterlimit:4;stroke-opacity:1;stroke-dasharray:none"/><path id="path2987" d="m 698.77301,451.82648 c 2.27347,-0.59614 -600.030599,-1.51523 -600.030599,-1.51523 0,-165.69387 134.321419,-298.50007 300.015299,-298.50007 165.69388,0 300.0153,134.32143 300.0153,300.0153 z" style="fill:#a1761d;fill-opacity:.44342508;stroke:#000;stroke-width:3;stroke-miterlimit:4;stroke-opacity:1;stroke-dasharray:none"/><path id="path3758" d="m 400,451.6479 1.42857,-298.57143" style="fill:none;stroke:#000;stroke-width:1px;stroke-linecap:butt;stroke-linejoin:miter;stroke-opacity:1"/><path id="path3760" d="M 399.28571,465.93361 99.877448,465.04601" style="fill:none;stroke:#000;stroke-width:1px;stroke-linecap:butt;stroke-linejoin:miter;stroke-opacity:1;marker-start:url(#Arrow1Lstart);marker-end:url(#Arrow1Lend)"/><text id="text4400" x="212.093" y="488.004" xml:space="preserve" style="font-size:20px;font-style:normal;font-weight:400;line-height:125%;letter-spacing:0;word-spacing:0;fill:#000;fill-opacity:1;stroke:none;font-family:Sans"><tspan id="tspan4402" x="212.093" y="488.004" style="font-size:20px"><tspan id="tspan4404" x="212.093" y="488.004" style="font-size:20px">6370 km</tspan></tspan></text><text id="text4414" x="387.488" y="139.358" xml:space="preserve" style="font-size:40px;font-style:normal;font-weight:400;line-height:125%;letter-spacing:0;word-spacing:0;fill:#000;fill-opacity:1;stroke:none;font-family:Sans"><tspan id="tspan4416" x="387.488" y="139.358"><tspan id="tspan4418" x="387.488" y="139.358">N</tspan></tspan></text><path id="path4423" d="M 400.02041,451.82649 654.57885,294.74777" style="fill:none;stroke:#000;stroke-width:2;stroke-linecap:butt;stroke-linejoin:miter;stroke-miterlimit:4;stroke-opacity:1;stroke-dasharray:none"/><path id="path4425" d="M 653.77636,294.74226 142.24211,294.24318" style="fill:none;stroke:#000;stroke-width:2;stroke-linecap:butt;stroke-linejoin:miter;stroke-miterlimit:4;stroke-opacity:1;stroke-dasharray:16,16;stroke-dashoffset:0"/><text id="text4489" x="192.925" y="288.406" xml:space="preserve" style="font-size:20px;font-style:normal;font-weight:400;line-height:125%;letter-spacing:0;word-spacing:0;fill:#000;fill-opacity:1;stroke:none;font-family:Sans"><tspan id="tspan4491" x="192.925" y="288.406"><tspan id="tspan4493" x="192.925" y="288.406">Der 25. Breitengrad</tspan></tspan></text><text id="text4503" x="582.854" y="317.673" xml:space="preserve" style="font-size:20px;font-style:normal;font-weight:400;line-height:125%;letter-spacing:0;word-spacing:0;fill:#000;fill-opacity:1;stroke:none;font-family:Sans"><tspan id="tspan4505" x="582.854" y="317.673"><tspan id="tspan4507" x="582.854" y="317.673" style="font-size:20px">25°</tspan></tspan></text><path id="path4509" d="m 588.16132,335.15387 c 0,0 -23.48605,-16.16243 -10.35406,-40.4061" style="fill:none;stroke:#000;stroke-width:2;stroke-linecap:butt;stroke-linejoin:miter;stroke-miterlimit:4;stroke-opacity:1;stroke-dasharray:none"/><text id="text4400-1" x="200.537" y="626.035" transform="matrix(0.82583554,-0.56391104,0.56391104,0.82583554,0,0)" xml:space="preserve" style="font-size:20px;font-style:normal;font-weight:400;line-height:125%;letter-spacing:0;word-spacing:0;fill:#000;fill-opacity:1;stroke:none;font-family:Sans"><tspan id="tspan4402-4" x="200.537" y="626.035"><tspan id="tspan4404-2" x="200.537" y="626.035" style="font-size:20px">6370 km</tspan></tspan></text><path id="path4613" d="m 486.07143,294.54968 64.01785,0.0893" style="fill:none;stroke:#0f0;stroke-width:3;stroke-linecap:butt;stroke-linejoin:miter;stroke-miterlimit:4;stroke-opacity:1;stroke-dasharray:none"/><path id="path4535" d="m 516.69304,297.39941 a 3.1567266,3.1567266 0 1 1 -6.31345,0 3.1567266,3.1567266 0 1 1 6.31345,0 z" transform="translate(-28.031733,-2.7779195)" style="fill:#000;fill-opacity:1;stroke:#000;stroke-width:2;stroke-miterlimit:4;stroke-opacity:1;stroke-dasharray:none;stroke-dashoffset:0"/><path id="path4535-2" d="m 516.69304,297.39941 a 3.1567266,3.1567266 0 1 1 -6.31345,0 3.1567266,3.1567266 0 1 1 6.31345,0 z" transform="translate(35.986669,-2.6516413)" style="fill:#000;fill-opacity:1;stroke:#000;stroke-width:2;stroke-miterlimit:4;stroke-opacity:1;stroke-dasharray:none;stroke-dashoffset:0"/><text id="text3024" x="435.136" y="260.222" xml:space="preserve" style="font-size:14px;font-style:normal;font-weight:400;line-height:125%;letter-spacing:0;word-spacing:0;fill:#000;fill-opacity:1;stroke:none;font-family:Sans"><tspan id="tspan3026" x="435.136" y="260.222"><tspan id="tspan3028" x="435.136" y="260.222">Burdsch </tspan></tspan><tspan id="tspan3032" x="435.136" y="277.722"><tspan id="tspan3034" x="435.136" y="277.722">Chalifa</tspan></tspan></text><text id="text4607" x="536.391" y="277.887" xml:space="preserve" style="font-size:14px;font-style:normal;font-weight:400;line-height:125%;letter-spacing:0;word-spacing:0;fill:#000;fill-opacity:1;stroke:none;font-family:Sans"><tspan id="tspan4609" x="536.391" y="277.887"><tspan id="tspan4611" x="536.391" y="277.887">Mileiha</tspan></tspan></text></g></svg>